<svg width="46" height="41" viewBox="0 0 46 41" fill="none" xmlns="http://www.w3.org/2000/svg">
<path fill-rule="evenodd" clip-rule="evenodd" d="M19.4518 13.6252C21.9539 17.8561 14.4763 22.929 11.5939 20.0037C8.71145 17.0794 13.71 9.48951 17.8789 12.0298L23.411 6.41643C25.574 4.2222 28.488 3.01378 31.5429 3.01378C34.5968 3.01378 37.5127 4.2222 39.6748 6.41643C41.8368 8.60968 43.0304 11.568 43.0304 14.6693C43.0304 17.7696 41.8368 20.727 39.6748 22.9222L26.1497 36.6475C24.4149 38.4091 21.5851 38.4091 19.8503 36.6475L6.32524 22.9212C4.16318 20.727 2.9696 17.7696 2.9696 14.6683C2.9696 11.568 4.16318 8.61065 6.32524 6.41643C8.4873 4.2222 11.4032 3.01378 14.4571 3.01378C17.512 3.01378 20.426 4.2222 22.589 6.41643L22.2883 6.72072C21.6062 7.41292 20.5554 7.50819 19.7641 6.94821C18.218 5.85548 16.3711 5.26439 14.4571 5.26439C11.9924 5.26439 9.64161 6.24241 7.89721 8.01276C6.15377 9.78311 5.19296 12.1689 5.19296 14.6693C5.19296 17.1707 6.15281 19.5565 7.89721 21.3259L21.4778 35.1095C22.316 35.9592 23.682 35.9592 24.5202 35.1095L38.1018 21.3268C39.8453 19.5565 40.8061 17.1707 40.8061 14.6703C40.8061 12.1698 39.8462 9.78311 38.1018 8.01373C36.3574 6.24338 34.0067 5.26536 31.5419 5.26536C29.0781 5.26536 26.7264 6.24338 24.9829 8.01373L19.4518 13.6252ZM27.9841 11.8908C29.2869 11.2472 30.8675 11.5048 31.9078 12.5461L35.7223 16.4163C35.9743 16.673 35.9743 17.091 35.7223 17.3477C35.4694 17.6053 35.0575 17.6043 34.8046 17.3477L31.0007 13.4871C30.8924 13.3773 30.7152 13.3773 30.607 13.4871C30.4987 13.597 30.4987 13.7768 30.607 13.8857L34.4119 17.7473C34.6638 18.0029 34.6648 18.422 34.4119 18.6776C34.159 18.9343 33.7471 18.9343 33.4942 18.6776L29.6893 14.8171C29.582 14.7082 29.4038 14.7072 29.2955 14.8171C29.1873 14.926 29.1873 15.1068 29.2955 15.2157L33.1005 19.0772C33.3534 19.3329 33.3534 19.7519 33.1005 20.0086C32.8485 20.2642 32.4357 20.2642 32.1828 20.0086L28.3778 16.148C28.2706 16.0391 28.0924 16.0391 27.9841 16.148C27.8759 16.2569 27.8759 16.4377 27.9841 16.5476L31.789 20.4081C32.0419 20.6638 32.0419 21.0828 31.789 21.3395C31.5362 21.5952 31.1242 21.5952 30.8713 21.3395L27.0578 17.4682C26.028 16.4144 25.7771 14.8083 26.4122 13.4862L24.8651 11.9151C24.0968 11.1354 24.0968 9.86283 24.8651 9.08313L25.0423 8.90328L27.9841 11.8908ZM23 2.81739C25.4648 0.989685 28.4478 0 31.5429 0C35.3842 0.000972186 39.055 1.52536 41.7746 4.2854C44.4932 7.04446 46 10.7689 46 14.6683C46 18.5678 44.4932 22.2922 41.7746 25.0513L28.2121 38.8155C25.3412 41.7282 20.6579 41.7282 17.7879 38.8155L4.22545 25.0523C1.50683 22.2922 0 18.5678 0 14.6683C0 10.7689 1.50683 7.04446 4.22545 4.2854C6.94406 1.52536 10.6158 0.000972186 14.4571 0C17.5522 0 20.5352 0.989685 23 2.81739Z" fill="#BF9444"/>
</svg>
